<?xml version="1.0" encoding="utf-8"?>
<!-- Generator: Adobe Illustrator 24.0.1, SVG Export Plug-In . SVG Version: 6.00 Build 0)  -->
<svg version="1.1" id="Layer_1" xmlns="http://www.w3.org/2000/svg" xmlns:xlink="http://www.w3.org/1999/xlink" x="0px" y="0px"
	 viewBox="0 0 300 193.75" style="enable-background:new 0 0 300 193.75;" xml:space="preserve">
<style type="text/css">
	.st0{fill:url(#SVGID_1_);}
	.st1{fill:url(#SVGID_2_);}
	.st2{fill:#A70E13;}
	.st3{fill:#414042;}
	.st4{fill:#939598;}
	.st5{fill:url(#SVGID_3_);}
	.st6{fill:url(#SVGID_4_);}
	.st7{font-family:'BaskOldFace';}
	.st8{font-size:64.2718px;}
	.st9{letter-spacing:2.07;}
	.st10{letter-spacing:3.1;}
	.st11{font-size:43.5316px;}
	.st12{letter-spacing:1.24;}
	.st13{fill:url(#SVGID_5_);}
	.st14{fill:#FFFFFF;}
</style>
<linearGradient id="SVGID_1_" gradientUnits="userSpaceOnUse" x1="166.2994" y1="23.828" x2="179.0252" y2="23.828">
	<stop  offset="0" style="stop-color:#A70E13"/>
	<stop  offset="0.2609" style="stop-color:#A50D12"/>
	<stop  offset="0.4133" style="stop-color:#9F0B10"/>
	<stop  offset="0.4166" style="stop-color:#A00C10"/>
	<stop  offset="1" style="stop-color:#ED1C24"/>
</linearGradient>
<polygon class="st0" points="166.3,15.97 166.3,19.79 168.56,19.79 168.56,31.69 176.76,31.69 176.76,19.79 179.03,19.79 
	179.03,15.97 "/>
<linearGradient id="SVGID_2_" gradientUnits="userSpaceOnUse" x1="29.6355" y1="105.3408" x2="37.8318" y2="105.3408">
	<stop  offset="0" style="stop-color:#A70E13"/>
	<stop  offset="0.2855" style="stop-color:#A50D12"/>
	<stop  offset="0.4524" style="stop-color:#9F0B10"/>
	<stop  offset="0.5213" style="stop-color:#AB0F15"/>
	<stop  offset="0.7368" style="stop-color:#CE171E"/>
	<stop  offset="0.9035" style="stop-color:#E31B22"/>
	<stop  offset="1" style="stop-color:#ED1C24"/>
</linearGradient>
<polygon class="st1" points="29.64,100.28 29.64,102.74 31.09,102.74 31.09,110.4 36.37,110.4 36.37,102.74 37.83,102.74 
	37.83,100.28 "/>
<path class="st2" d="M10.93,139.55l36.85-36.85L94,139.55h-0.06L47.78,93.39c-13.16,13.16-28.97,28.97-46.16,46.16H10.93z"/>
<g>
	<rect x="39.93" y="116.79" class="st3" width="7.57" height="7.57"/>
	<rect x="49.05" y="116.79" class="st3" width="7.57" height="7.57"/>
	<rect x="39.93" y="125.82" class="st3" width="7.57" height="7.57"/>
	<rect x="49.05" y="125.82" class="st3" width="7.57" height="7.57"/>
</g>
<polygon class="st4" points="32.09,120.04 47.77,104.36 67.37,120.11 47.8,106.9 "/>
<linearGradient id="SVGID_3_" gradientUnits="userSpaceOnUse" x1="108.7988" y1="51.504" x2="116.5013" y2="51.504">
	<stop  offset="0" style="stop-color:#A70E13"/>
	<stop  offset="0.0699" style="stop-color:#BC141A"/>
	<stop  offset="0.1407" style="stop-color:#CC171E"/>
	<stop  offset="0.1872" style="stop-color:#D1181F"/>
	<stop  offset="0.5055" style="stop-color:#A60E12"/>
	<stop  offset="0.5503" style="stop-color:#9F0B10"/>
	<stop  offset="0.9364" style="stop-color:#9F0B10"/>
	<stop  offset="1" style="stop-color:#9F0B10"/>
</linearGradient>
<polygon class="st5" points="108.8,46.75 108.8,49.06 110.17,49.06 110.17,56.26 115.13,56.26 115.13,49.06 116.5,49.06 
	116.5,46.75 "/>
<linearGradient id="SVGID_4_" gradientUnits="userSpaceOnUse" x1="97.6878" y1="47.0375" x2="199.7865" y2="47.0375">
	<stop  offset="0.257" style="stop-color:#A70E13"/>
	<stop  offset="0.3828" style="stop-color:#B81319"/>
	<stop  offset="0.4748" style="stop-color:#C6161D"/>
	<stop  offset="0.6395" style="stop-color:#C9171D"/>
	<stop  offset="0.7789" style="stop-color:#D0181F"/>
	<stop  offset="0.9087" style="stop-color:#DD1A22"/>
	<stop  offset="1" style="stop-color:#ED1C24"/>
</linearGradient>
<polygon class="st6" points="128.45,82.71 199.79,11.37 120.76,55.52 97.69,51.95 "/>
<path class="st3" d="M63.76,92.4l32.13-32.13l32.13,32.13h8.13L95.89,52.14C84.41,63.62,70.63,77.4,55.63,92.4H63.76z"/>
<polygon class="st3" points="207.95,6.56 120.58,93.93 138.21,93.93 207.95,24.19 277.69,93.93 295.33,93.93 "/>
<text transform="matrix(0.9671 0 0 1 115.9629 140.2228)"><tspan x="0" y="0" class="st2 st7 st8 st9">OV</tspan><tspan x="100.57" y="0" class="st2 st7 st8 st10">US</tspan></text>
<g>
	<rect x="194.82" y="51.5" class="st3" width="11.91" height="11.91"/>
	<rect x="209.17" y="51.5" class="st3" width="11.91" height="11.91"/>
	<rect x="194.82" y="65.72" class="st3" width="11.91" height="11.91"/>
	<rect x="209.17" y="65.72" class="st3" width="11.91" height="11.91"/>
</g>
<g>
	<rect x="88.83" y="73.81" class="st3" width="6.4" height="6.4"/>
	<rect x="96.55" y="73.81" class="st3" width="6.4" height="6.4"/>
	<rect x="88.83" y="81.45" class="st3" width="6.4" height="6.4"/>
	<rect x="96.55" y="81.45" class="st3" width="6.4" height="6.4"/>
</g>
<text transform="matrix(0.8059 0 0 1 1.2627 178.2763)" class="st7 st11 st12">CONSTRUCTION</text>
<polygon class="st4" points="171.38,63.42 207.95,26.84 244.67,63.57 208.03,32.78 "/>
<polygon class="st4" points="81.93,75.79 95.86,61.86 109.85,75.85 95.89,64.12 "/>
<g>
	<linearGradient id="SVGID_5_" gradientUnits="userSpaceOnUse" x1="62.9315" y1="120.7987" x2="189.5262" y2="70.8153">
		<stop  offset="0.1061" style="stop-color:#A70E13"/>
		<stop  offset="0.1307" style="stop-color:#A30E12"/>
		<stop  offset="0.1525" style="stop-color:#980B0F"/>
		<stop  offset="0.1733" style="stop-color:#870608"/>
		<stop  offset="0.1933" style="stop-color:#710000"/>
		<stop  offset="0.2122" style="stop-color:#570000"/>
		<stop  offset="0.2157" style="stop-color:#570000"/>
		<stop  offset="0.2374" style="stop-color:#680000"/>
		<stop  offset="0.2771" style="stop-color:#82090B"/>
		<stop  offset="0.3219" style="stop-color:#9C1115"/>
		<stop  offset="0.3713" style="stop-color:#B4161C"/>
		<stop  offset="0.4271" style="stop-color:#C71920"/>
		<stop  offset="0.4923" style="stop-color:#D61B22"/>
		<stop  offset="0.573" style="stop-color:#E11C23"/>
		<stop  offset="0.686" style="stop-color:#EA1C24"/>
		<stop  offset="1" style="stop-color:#ED1C24"/>
	</linearGradient>
	<path class="st13" d="M50.23,93.49l18.04,0.13l26.8,26.74l0.14-0.36c0.22-0.59,22.68-58.41,90.99-81.91
		c-11.05,6.69-62.89,40.72-82.27,100.73l-8,0.37L50.23,93.49z"/>
	<path class="st14" d="M184.05,39.11c-5.86,3.68-17.32,11.45-29.96,23.18c-16.73,15.52-39.02,41.34-50.36,76.3l-7.71,0.36
		L50.83,93.75l17.33,0.12l26.46,26.39l0.55,0.55l0.27-0.72c0.06-0.15,5.74-15.01,20-32.54C128.06,72.04,150.05,51.36,184.05,39.11
		 M188.41,37.09c-71.03,23.28-93.43,82.82-93.43,82.82l-26.6-26.54l-18.75-0.13l46.21,46.21l8.28-0.39
		C125.92,71.28,188.41,37.09,188.41,37.09L188.41,37.09z"/>
</g>
</svg>
