<?xml version="1.0" encoding="utf-8"?>
<!-- Generator: Adobe Illustrator 24.0.1, SVG Export Plug-In . SVG Version: 6.00 Build 0)  -->
<svg version="1.1" id="Layer_1" xmlns="http://www.w3.org/2000/svg" xmlns:xlink="http://www.w3.org/1999/xlink" x="0px" y="0px"
	 viewBox="0 0 300 193.75" style="enable-background:new 0 0 300 193.75;" xml:space="preserve">
<style type="text/css">
	.st0{fill:#58595B;}
	.st1{fill:none;}
	.st2{fill:#333333;}
	.st3{fill:url(#SVGID_1_);}
	.st4{fill:url(#SVGID_2_);}
	.st5{fill:#A70E13;}
	.st6{fill:#939598;}
	.st7{fill:url(#SVGID_3_);}
	.st8{fill:url(#SVGID_4_);}
	.st9{fill:#414042;}
	.st10{font-family:'BaskOldFace';}
	.st11{font-size:53.4558px;}
	.st12{letter-spacing:1.73;}
	.st13{letter-spacing:2.59;}
	.st14{font-size:37.6279px;}
	.st15{letter-spacing:1.42;}
	.st16{fill:url(#SVGID_5_);}
	.st17{fill:#FFFFFF;}
</style>
<g>
	<rect x="190.82" y="67.55" class="st0" width="14.49" height="14.49"/>
	<rect x="209.94" y="67.55" class="st0" width="14.49" height="14.49"/>
	<g>
		<path class="st1" d="M209.94,62.86V48.78c-0.72-0.09-1.45-0.15-2.19-0.15c-0.83,0-1.64,0.06-2.44,0.18v14.05h-14.06
			c-0.12,0.8-0.18,1.62-0.18,2.45c0,9.21,7.47,16.68,16.68,16.68c9.21,0,16.68-7.47,16.68-16.68c0-0.83-0.06-1.65-0.18-2.45H209.94z
			"/>
		<path class="st2" d="M205.31,48.81c-7.26,1.06-12.99,6.8-14.06,14.05h14.06V48.81z"/>
		<path class="st2" d="M224.25,62.86c-1.08-7.34-6.93-13.12-14.31-14.09v14.09H224.25z"/>
	</g>
</g>
<g>
	<rect x="87.79" y="80.22" class="st0" width="7.24" height="7.24"/>
	<rect x="97.35" y="80.22" class="st0" width="7.24" height="7.24"/>
	<g>
		<path class="st1" d="M97.35,77.87v-7.04c-0.36-0.05-0.73-0.07-1.1-0.07c-0.41,0-0.82,0.03-1.22,0.09v7.03h-7.03
			c-0.06,0.4-0.09,0.81-0.09,1.22c0,4.61,3.73,8.34,8.34,8.34c4.61,0,8.34-3.73,8.34-8.34c0-0.42-0.03-0.82-0.09-1.22H97.35z"/>
		<path class="st2" d="M95.04,70.85c-3.63,0.53-6.5,3.4-7.03,7.03h7.03V70.85z"/>
		<path class="st2" d="M104.51,77.87c-0.54-3.67-3.47-6.56-7.15-7.04v7.04H104.51z"/>
	</g>
</g>
<g>
	<rect x="37.43" y="124.98" class="st0" width="9.42" height="9.42"/>
	<rect x="49.85" y="124.98" class="st0" width="9.42" height="9.42"/>
	<g>
		<path class="st1" d="M49.85,121.93v-9.16c-0.47-0.06-0.94-0.1-1.43-0.1c-0.54,0-1.07,0.04-1.59,0.12v9.14H37.7
			c-0.08,0.52-0.12,1.05-0.12,1.59c0,5.99,4.85,10.84,10.84,10.84c5.99,0,10.84-4.85,10.84-10.84c0-0.54-0.04-1.07-0.12-1.59H49.85z
			"/>
		<path class="st2" d="M46.84,112.79c-4.72,0.69-8.45,4.42-9.14,9.14h9.14V112.79z"/>
		<path class="st2" d="M59.15,121.93c-0.7-4.77-4.51-8.53-9.3-9.16v9.16H59.15z"/>
	</g>
</g>
<linearGradient id="SVGID_1_" gradientUnits="userSpaceOnUse" x1="166.2069" y1="20.562" x2="178.8609" y2="20.562">
	<stop  offset="0" style="stop-color:#A70E13"/>
	<stop  offset="0.2609" style="stop-color:#A50D12"/>
	<stop  offset="0.4133" style="stop-color:#9F0B10"/>
	<stop  offset="0.4166" style="stop-color:#A00C10"/>
	<stop  offset="1" style="stop-color:#ED1C24"/>
</linearGradient>
<polygon class="st3" points="166.21,12.75 166.21,16.54 168.46,16.54 168.46,28.38 176.61,28.38 176.61,16.54 178.86,16.54 
	178.86,12.75 "/>
<linearGradient id="SVGID_2_" gradientUnits="userSpaceOnUse" x1="30.3139" y1="101.615" x2="38.4639" y2="101.615">
	<stop  offset="0" style="stop-color:#A70E13"/>
	<stop  offset="0.2855" style="stop-color:#A50D12"/>
	<stop  offset="0.4524" style="stop-color:#9F0B10"/>
	<stop  offset="0.5213" style="stop-color:#AB0F15"/>
	<stop  offset="0.7368" style="stop-color:#CE171E"/>
	<stop  offset="0.9035" style="stop-color:#E31B22"/>
	<stop  offset="1" style="stop-color:#ED1C24"/>
</linearGradient>
<polygon class="st4" points="30.31,96.58 30.31,99.03 31.76,99.03 31.76,106.65 37.01,106.65 37.01,99.03 38.46,99.03 38.46,96.58 
	"/>
<path class="st5" d="M11.72,135.63l36.64-36.64l45.96,36.64h-0.05l-45.9-45.9c-13.09,13.09-28.8,28.8-45.9,45.9H11.72z"/>
<polygon class="st6" points="32.75,116.24 48.35,100.64 67.84,116.3 48.38,103.17 "/>
<linearGradient id="SVGID_3_" gradientUnits="userSpaceOnUse" x1="109.0307" y1="48.0819" x2="116.6897" y2="48.0819">
	<stop  offset="0" style="stop-color:#A70E13"/>
	<stop  offset="0.0699" style="stop-color:#BC141A"/>
	<stop  offset="0.1407" style="stop-color:#CC171E"/>
	<stop  offset="0.1872" style="stop-color:#D1181F"/>
	<stop  offset="0.5055" style="stop-color:#A60E12"/>
	<stop  offset="0.5503" style="stop-color:#9F0B10"/>
	<stop  offset="0.9364" style="stop-color:#9F0B10"/>
	<stop  offset="1" style="stop-color:#9F0B10"/>
</linearGradient>
<polygon class="st7" points="109.03,43.35 109.03,45.65 110.39,45.65 110.39,52.81 115.33,52.81 115.33,45.65 116.69,45.65 
	116.69,43.35 "/>
<linearGradient id="SVGID_4_" gradientUnits="userSpaceOnUse" x1="97.9823" y1="43.6406" x2="199.5052" y2="43.6406">
	<stop  offset="0.257" style="stop-color:#A70E13"/>
	<stop  offset="0.3828" style="stop-color:#B81319"/>
	<stop  offset="0.4748" style="stop-color:#C6161D"/>
	<stop  offset="0.6395" style="stop-color:#C9171D"/>
	<stop  offset="0.7789" style="stop-color:#D0181F"/>
	<stop  offset="0.9087" style="stop-color:#DD1A22"/>
	<stop  offset="1" style="stop-color:#ED1C24"/>
</linearGradient>
<polygon class="st8" points="128.57,79.11 199.51,8.17 120.93,52.07 97.98,48.53 "/>
<path class="st9" d="M64.24,88.75l31.95-31.95l31.95,31.95h8.08L96.19,48.71C84.78,60.13,71.08,73.83,56.16,88.75H64.24z"/>
<polygon class="st9" points="207.62,3.39 120.74,90.27 138.28,90.27 207.62,20.92 276.97,90.27 294.51,90.27 "/>
<text transform="matrix(1.1563 0 0 1 116.1559 137.0633)"><tspan x="0" y="0" class="st5 st10 st11 st12">OV</tspan><tspan x="83.65" y="0" class="st5 st10 st11 st13">US</tspan></text>
<text transform="matrix(1.4054 0 0 1 -0.6029 173.1033)" class="st10 st14 st15">Construction</text>
<polygon class="st6" points="171.26,59.93 207.63,23.56 244.14,60.08 207.7,29.46 "/>
<polygon class="st6" points="82.32,72.23 96.17,58.38 110.07,72.29 96.19,60.63 "/>
<g>
	<linearGradient id="SVGID_5_" gradientUnits="userSpaceOnUse" x1="63.4242" y1="116.9848" x2="189.2912" y2="67.2886">
		<stop  offset="0.1061" style="stop-color:#A70E13"/>
		<stop  offset="0.1307" style="stop-color:#A30E12"/>
		<stop  offset="0.1525" style="stop-color:#980B0F"/>
		<stop  offset="0.1733" style="stop-color:#870608"/>
		<stop  offset="0.1933" style="stop-color:#710000"/>
		<stop  offset="0.2122" style="stop-color:#570000"/>
		<stop  offset="0.2157" style="stop-color:#570000"/>
		<stop  offset="0.2374" style="stop-color:#680000"/>
		<stop  offset="0.2771" style="stop-color:#82090B"/>
		<stop  offset="0.3219" style="stop-color:#9C1115"/>
		<stop  offset="0.3713" style="stop-color:#B4161C"/>
		<stop  offset="0.4271" style="stop-color:#C71920"/>
		<stop  offset="0.4923" style="stop-color:#D61B22"/>
		<stop  offset="0.573" style="stop-color:#E11C23"/>
		<stop  offset="0.686" style="stop-color:#EA1C24"/>
		<stop  offset="1" style="stop-color:#ED1C24"/>
	</linearGradient>
	<path class="st16" d="M50.79,89.84l17.93,0.13l26.66,26.59l0.14-0.36c0.22-0.58,22.54-58.07,90.46-81.44
		c-11.02,6.67-62.53,40.51-81.8,100.16l-7.95,0.37L50.79,89.84z"/>
	<path class="st17" d="M183.84,35.77c-5.84,3.66-17.21,11.39-29.76,23.03c-16.64,15.43-38.8,41.11-50.07,75.86l-7.67,0.36
		L51.4,90.09l17.22,0.12l26.31,26.24l0.55,0.55l0.27-0.72c0.06-0.15,5.7-14.93,19.89-32.36C128.18,68.5,150.04,47.95,183.84,35.77
		 M188.19,33.75C117.56,56.9,95.28,116.1,95.28,116.1L68.83,89.72l-18.65-0.13l45.95,45.95l8.23-0.38
		C126.06,67.74,188.19,33.75,188.19,33.75L188.19,33.75z"/>
</g>
</svg>
